<?xml version="1.0" encoding="utf-8"?>
<!-- Generator: Adobe Illustrator 19.2.1, SVG Export Plug-In . SVG Version: 6.00 Build 0)  -->
<svg id="tirex" version="1.1" xmlns="http://www.w3.org/2000/svg" xmlns:xlink="http://www.w3.org/1999/xlink" x="0px"
	 y="0px" viewBox="0 0 24 24" style="enable-background:new 0 0 24 24;" xml:space="preserve">
<style type="text/css">
	.st0{fill:#fff;}
	.st1{fill:#a9a9a9;}
</style>
<path class="st0" style="fill:#fff;" d="M12,2C6.5,2,2,6.5,2,12c0,5.5,4.5,10,10,10c5.5,0,10-4.5,10-10C22,6.5,17.5,2,12,2z M13,20.3l-1-1.8L11,20.3
	c-3.8-0.5-6.8-3.5-7.2-7.3l1.7-1l-1.7-1C4.2,7.2,7.2,4.2,11,3.7l1,1.7l1-1.7c3.8,0.5,6.9,3.5,7.3,7.3L18.7,12l1.6,0.9
	C19.9,16.8,16.8,19.8,13,20.3z"/>
<path class="st1" style="fill:#a9a9a9;" d="M17.5,6.3c-2.6,2.2-7.6,3.7-7.6,3.7c-1.2,4.7-3.6,7.6-3.6,7.6l0.3,0.3c0,0,2.9-2.4,7.6-3.6c0,0,1.4-5,3.7-7.6
	L17.5,6.3z M12,13.4c-0.8,0-1.4-0.6-1.4-1.4c0-0.8,0.6-1.4,1.4-1.4c0.8,0,1.4,0.6,1.4,1.4C13.4,12.8,12.8,13.4,12,13.4z"/>
</svg>
