<?xml version="1.0" encoding="UTF-8" standalone="no"?>
<!-- Generator: Adobe Illustrator 21.1.0, SVG Export Plug-In . SVG Version: 6.00 Build 0)  -->

<svg
   xmlns:dc="http://purl.org/dc/elements/1.1/"
   xmlns:cc="http://creativecommons.org/ns#"
   xmlns:rdf="http://www.w3.org/1999/02/22-rdf-syntax-ns#"
   xmlns:svg="http://www.w3.org/2000/svg"
   xmlns="http://www.w3.org/2000/svg"
   xmlns:sodipodi="http://sodipodi.sourceforge.net/DTD/sodipodi-0.dtd"
   xmlns:inkscape="http://www.inkscape.org/namespaces/inkscape"
   version="1.1"
   id="sl_academy"
   x="0px"
   y="0px"
   viewBox="0 0 500 500"
   style="enable-background:new 0 0 500 500;"
   xml:space="preserve"
   sodipodi:docname="SL_Academy_Icon_black.svg"
   inkscape:version="0.92.2 (5c3e80d, 2017-08-06)"><metadata
     id="metadata33"><rdf:RDF><cc:Work
         rdf:about=""><dc:format>image/svg+xml</dc:format><dc:type
           rdf:resource="http://purl.org/dc/dcmitype/StillImage" /><dc:title></dc:title></cc:Work></rdf:RDF></metadata><defs
     id="defs31" /><sodipodi:namedview
     pagecolor="#ffffff"
     bordercolor="#666666"
     borderopacity="1"
     objecttolerance="10"
     gridtolerance="10"
     guidetolerance="10"
     inkscape:pageopacity="0"
     inkscape:pageshadow="2"
     inkscape:window-width="1920"
     inkscape:window-height="1017"
     id="namedview29"
     showgrid="false"
     inkscape:zoom="1.888"
     inkscape:cx="241.26059"
     inkscape:cy="250"
     inkscape:window-x="-8"
     inkscape:window-y="-8"
     inkscape:window-maximized="1"
     inkscape:current-layer="_x2014_ÎÓÈ_x5F_1" /><style
     type="text/css"
     id="style2">
	.st0{fill:inherit;stroke:#1D1D1B;stroke-width:6.4045;stroke-miterlimit:10;}
	.st1{fill:inherit;}
</style><path
     d="M925,375.1V171.4l-19.4-1.1l7.7,12.6v179.3l-125.1-7.8c-6.1,5.1-13.8,7.7-23.1,7.7s-16.9-2.6-22.8-7.7l-125.6,7.8V183  l5.7-11.1l-17.2,0.9V375l132.8-9.8c5.2,2.8,10.2,4.9,15,6.3s9.4,2.1,13.9,2.1c4.2,0,8.4-0.7,12.8-2.1c4.4-1.4,8.9-3.5,13.6-6.3  L925,375.1z"
     id="path4" /><path
     d="M631.4,339.5c13.7-2.2,25.9-3.8,36.5-4.8s19.6-1.6,27.1-1.6c30.4,0,52.3,6.5,65.7,19.4v-152c0-14.6-5.1-25.5-15.5-32.7  c-10.3-7.2-25.8-10.9-46.5-10.9c-10.6,0-21.6,0.7-32.8,2s-22.7,3.3-34.6,5.9L631.4,339.5L631.4,339.5z"
     id="path6" /><path
     d="M862.6,158.8c-11-1.2-21-1.9-30-1.9c-21.9,0-38.4,4-49.7,11.9c-9,6.2-13.5,16.9-13.5,32v152.3c8.2-7.6,16.9-12.8,26.1-15.7  c9.2-2.9,21.9-4.3,38.1-4.3c10.8,0,21.6,0.5,32.4,1.6c10.8,1.1,21.7,2.8,32.5,5.1V164.4C885.6,161.9,873.6,160.1,862.6,158.8z"
     id="path8" /><ellipse
     cx="834.1"
     cy="247.4"
     rx="56.8"
     ry="56.8"
     id="ellipse10" /><line
     class="st0"
     x1="804.8"
     y1="51"
     x2="721"
     y2="51"
     id="line12" /><g
     id="g20"><path
       class="st1"
       d="M33,412.3h432c5.3,0,23.1-1.5,24.7-7.9H8.3C9.9,410.8,27.7,412.3,33,412.3z"
       id="path14" /><path
       class="st1"
       d="M482.7,386.8c-1,0-79.8,0-172.4,0c-0.2,4.6-2.1,8.3-4.4,8.3H192.2c-2.3,0-4.2-3.6-4.4-8.3   c-92.6,0-171.4,0-172.4,0c-5.4,0-7.2,4.2-7.2,6.3c0,1.8,0,8.4,0,10.1h481.6c0-1.6,0-8.3,0-10.1   C489.8,391.1,488.1,386.8,482.7,386.8z M38.2,397.4c0,1.2-1,2.2-2.2,2.2s-2.2-1-2.2-2.2v-4.5c0-1.2,1-2.2,2.2-2.2s2.2,1,2.2,2.2   V397.4z M51.5,397.4c0,1.2-1,2.2-2.2,2.2s-2.2-1-2.2-2.2v-4.5c0-1.2,1-2.2,2.2-2.2s2.2,1,2.2,2.2V397.4z"
       id="path16" /><path
       class="st1"
       d="M433.8,151.5H320.1l45.4,24.5h60.8v187.4H71.7V176H132l45.9-24.5H64.2c-7,0-12.7,5.7-12.7,12.7v217.3h394.9   V164.2C446.5,157.2,440.8,151.5,433.8,151.5z"
       id="path18" /></g><g
     id="g26"><polygon
       class="st1"
       points="245.7,292.4 166.6,254.1 149.1,272.9 245.7,326.7 343.7,272.9 323.5,252.1  "
       id="polygon22" /><path
       class="st1"
       d="M100.1,272.2L86,355l34.9-1.2l-14.3-81.7c5.4-1.3,9.4-5.5,9.4-10.8c0-5.4-4.2-9.7-9.7-10.9v-33.2l139.5,63.1   L400,201.1L245.7,122L91.5,210.5l9.2,4.2v35.7c-5.5,1.2-9.7,5.5-9.7,10.9C90.9,266.5,94.8,270.8,100.1,272.2"
       id="path24" /></g><path
     style="fill:inherit;stroke-width:0.529661;fill-opacity:1"
     d="m 8.2627116,397.68771 c 0,-6.03604 0.8739092,-8.31589 3.7525454,-9.78964 1.700442,-0.87056 7.024826,-0.92613 88.805713,-0.92691 l 86.99683,-8.2e-4 v 1.13029 c 0,2.1808 1.26114,5.30751 2.54952,6.32095 1.26761,0.99709 2.77831,1.02334 58.9155,1.02334 h 57.61454 l 1.32636,-1.5763 c 0.72951,-0.86696 1.48353,-2.35663 1.67561,-3.31038 0.19209,-0.95375 0.46669,-2.1512 0.61023,-2.66099 0.24719,-0.87794 4.8415,-0.92687 86.95728,-0.92609 81.47764,7.8e-4 86.80788,0.0566 88.55011,0.92691 2.84713,1.4223 3.70583,3.69204 3.70681,9.7979 l 8.2e-4,5.1642 H 248.99364 8.2627116 Z m 29.5550844,1.3589 c 0.829643,-0.82964 0.829643,-6.90341 0,-7.73305 -0.817002,-0.817 -2.67876,-0.817 -3.495762,0 -0.355423,0.35542 -0.635594,2.05979 -0.635594,3.86652 0,3.43013 0.567527,4.50212 2.383475,4.50212 0.611759,0 1.398305,-0.28601 1.747881,-0.63559 z m 13.241526,0 c 0.829642,-0.82964 0.829642,-6.90341 0,-7.73305 -0.817003,-0.817 -2.67876,-0.817 -3.495763,0 -0.829642,0.82964 -0.829642,6.90341 0,7.73305 0.349576,0.34958 1.136123,0.63559 1.747881,0.63559 0.611759,0 1.398306,-0.28601 1.747882,-0.63559 z"
     id="path4587"
     inkscape:connector-curvature="0" /><path
     style="fill:inherit;fill-opacity:1;stroke-width:0.529661"
     d="m 22.180612,411.03621 c -2.366342,-0.39893 -5.647337,-1.22851 -7.291101,-1.84352 -2.948625,-1.10322 -6.1501045,-3.3213 -6.1501045,-4.26096 0,-0.28962 96.0439635,-0.48258 240.2012735,-0.48258 132.1107,0 240.20127,0.1968 240.20127,0.43734 0,0.66816 -2.17806,2.51285 -4.13574,3.50273 -0.96375,0.4873 -3.58557,1.40899 -5.82627,2.04818 l -4.07401,1.16218 -224.31144,0.081 c -187.710422,0.0678 -225.013471,-0.0374 -228.613878,-0.64434 z"
     id="path5132"
     inkscape:connector-curvature="0" /><path
     style="fill:inherit;fill-opacity:1;stroke-width:0.529661"
     d="m 51.769421,271.10699 c 0.131209,-105.11057 0.18043,-110.12362 1.099396,-111.97016 0.529121,-1.06319 1.812821,-2.78386 2.852667,-3.82371 3.756255,-3.75625 -0.08692,-3.55069 63.398506,-3.3911 l 57.14965,0.14366 -22.04494,11.78496 -22.04493,11.78495 H 101.70959 71.239407 v 94.01483 94.01483 H 248.94068 426.64195 v -94.01483 -94.01483 h -30.63572 -30.63571 l -21.83331,-11.78495 -21.83331,-11.78496 57.35816,-0.1348 57.35815,-0.13479 2.79535,1.36764 c 3.02724,1.48109 5.14963,3.8439 6.26815,6.9782 0.58351,1.63509 0.71332,21.39557 0.73245,111.49472 l 0.0233,109.50742 H 248.93574 51.632062 Z"
     id="path5134"
     inkscape:connector-curvature="0" /><path
     style="fill:inherit;fill-opacity:1;stroke-width:0.529661"
     d=""
     id="path5136"
     inkscape:connector-curvature="0" /><path
     style="fill:inherit;fill-opacity:1;stroke-width:0.529661"
     d="m 86.599576,353.76782 c 0,-0.78977 12.804675,-76.6267 13.550604,-80.25474 0.26069,-1.26797 0.0606,-1.53163 -1.728529,-2.2779 -6.079268,-2.5357 -8.652803,-8.80799 -5.925514,-14.44182 1.226461,-2.53353 4.367925,-5.14353 6.845978,-5.68781 l 1.558305,-0.34226 v -18.14133 -18.14132 l -4.369659,-1.96516 -4.369663,-1.96516 1.588943,-0.98724 c 2.378403,-1.47776 151.398679,-86.95659 151.785509,-87.06499 0.43107,-0.12079 153.51852,78.21093 153.53599,78.56123 0.007,0.14566 -34.47978,17.96935 -76.63787,39.6082 l -76.65107,39.34335 -68.07139,-30.80838 c -37.43926,-16.94461 -68.84601,-31.1367 -69.79278,-31.53797 l -1.7214,-0.72958 0.0266,16.82384 0.0266,16.82385 3.08022,1.45784 c 8.67528,4.10592 8.42389,15.05107 -0.43321,18.86128 -1.94118,0.83508 -2.54969,1.35775 -2.39029,2.05312 0.63547,2.7723 14.01897,80.26551 13.88522,80.3983 -0.17331,0.17207 -27.408619,1.30785 -31.361543,1.30785 -1.927209,0 -2.431031,-0.18511 -2.431031,-0.8932 z"
     id="path5138"
     inkscape:connector-curvature="0" /><path
     style="fill:inherit;fill-opacity:1;stroke-width:0.529661"
     d="m 198.60904,300.14373 c -25.91929,-14.44829 -47.55183,-26.51926 -48.07231,-26.82439 -0.83105,-0.48721 0.0722,-1.65821 7.41526,-9.61373 4.59886,-4.98242 8.5078,-9.07955 8.68654,-9.10474 0.17873,-0.0252 18.03851,8.53515 39.68841,19.02295 l 39.36345,19.06874 38.86636,-20.1275 38.86637,-20.12751 9.97419,10.19542 c 5.90452,6.03548 9.72725,10.33065 9.36895,10.52684 -31.01202,16.98162 -94.27332,51.677 -95.42841,52.33729 l -1.60281,0.91623 z"
     id="path5140"
     inkscape:connector-curvature="0" /></svg>