<?xml version="1.0" encoding="UTF-8" standalone="no"?>
<svg id="tidevtools" data-name="tidevtools" xmlns="http://www.w3.org/2000/svg" viewBox="0 0 192 192">
	<path id="path20" style="fill:#ddd" d="M96.3393895915 3.0883247228C96.3393895915 3.0883247228 62.5312437701 23.0378842241 62.5312437701 23.0378842241C62.5312437701 23.0378842241 62.5312437701 59.5871406437 62.5312437701 59.5871406437C62.5312437701 59.5871406437 96.3398042582 39.640403809 96.3398042582 39.640403809C96.3398042582 39.640403809 96.3403562582 39.640403809 96.3403562582 39.640403809C119.299081018 49.2531102353 120.351340991 17.5352043616 96.3403562582 3.0897380561C96.3403562582 3.0897380561 96.3393895915 3.08840472279 96.3393895915 3.08840472279"/>
	<path id="path24" style="fill:#ddd" d="M48.5054521207 31.3125373505C48.5054521207 31.3125373505 18.0434195489 49.2869502345 18.0434195489 49.2869502345C18.0434195489 49.2869502345 17.5312835617 49.5878968936 17.5312835617 49.5878968936C17.5312835617 49.5878968936 17.5312835617 142.588774569 17.5312835617 142.588774569C41.9248402852 157.600031527 75.3419514498 141.890982586 48.5054521207 124.312791026C48.5054521207 124.312791026 48.5054521207 31.3125373505 48.5054521207 31.3125373505"/>
	<path id="path28" style="fill:#ddd" d="M62.9553730928 75.8899695694C62.9553730928 75.8899695694 62.5315331034 76.1386348965 62.5315331034 76.1386348965C62.5315331034 76.1386348965 62.5315331034 116.036927232 62.5315331034 116.036927232C96.9676655758 130.802458863 92.2528016937 108.841747412 103.522401412 102.257731577C103.522401412 102.257731577 106.280409343 93.8856384529 106.280409343 93.8856384529C106.106156014 80.6245787844 123.586171577 73.3195523003 96.3403202582 56.1911233952C96.3403202582 56.1911233952 96.3403202582 56.1911233952 96.3403202582 56.1911233952C96.3403202582 56.1911233952 62.9553730928 75.8899695694 62.9553730928 75.8899695694"/>
	<path id="path32" style="fill:#fff" d="M96.3402709248 3.08963138943C96.3402709248 3.08963138943 96.3402709248 39.640083809 96.3402709248 39.640083809C96.3402709248 39.640083809 175.147808955 85.9281133185 175.147808955 85.9281133185C175.147808955 85.9281133185 175.147808955 49.5908168936 175.147808955 49.5908168936C175.147808955 49.5908168936 175.147808955 49.5894835603 175.147808955 49.5894835603C175.147808955 49.5894835603 96.3402709248 3.08971138943 96.3402709248 3.08971138943"/>
	<path id="path36" style="fill:#fff" d="M144.175476396 124.312856359C122.599280935 139.882142636 143.05390309 161.376215432 175.148315621 142.587675902C175.148315621 142.587675902 175.148315621 102.467254238 175.148315621 102.467254238C175.148315621 102.467254238 144.175476396 84.2466173605 144.175476396 84.2466173605C144.175476396 84.2466173605 144.175476396 124.312856359 144.175476396 124.312856359"/>
	<path id="path40" style="fill:#fff" d="M96.8630815784 95.974307734C96.8630815784 95.974307734 96.8630815784 95.974307734 96.8630815784 95.974307734C82.0186486162 105.603495493 108.298455959 127.408402948 130.149748746 116.036927232C130.149748746 116.036927232 130.150811413 76.2515655604 130.150811413 76.2515655604C130.150811413 76.2515655604 130.150811413 76.1386322299 130.150811413 76.1386322299C130.150811413 76.1386322299 96.3403202582 56.1911233952 96.3403202582 56.1911233952C96.3403202582 56.1911233952 96.8630815784 95.974307734 96.8630815784 95.974307734"/>
	<path id="path44" style="fill:#eee" d="M144.175476396 124.312856359C144.175476396 124.312856359 64.8964210443 170.53604987 64.8964210443 170.53604987C64.8964210443 170.53604987 96.3392255915 189.088316206 96.3392255915 189.088316206C96.3392255915 189.088316206 96.3405322582 189.087382073 96.3405322582 189.087382073C96.3405322582 189.087382073 175.148315621 142.587675902 175.148315621 142.587675902C175.148315621 142.587675902 144.175476396 124.312856359 144.175476396 124.312856359"/>
	<path id="path46" style="fill:#eee" d="M48.505441454 124.312788359C48.505441454 124.312788359 17.5312142284 142.589057235 17.5312142284 142.589057235C17.5312142284 142.589057235 50.8188160629 162.229974078 50.8188160629 162.229974078C50.8188160629 162.229974078 82.0169166162 144.087003864 82.0169166162 144.087003864C82.0169166162 144.087003864 48.505441454 124.312788359 48.505441454 124.312788359"/>
	<path id="path50" style="fill:#eee" d="M96.3408042581 135.9856574C96.3408042581 135.9856574 96.3408042581 135.9856574 96.3408042581 135.9856574C96.3408042581 135.9856574 130.149883413 116.036409899 130.149883413 116.036409899C130.149883413 116.036409899 96.8639215784 95.9746610673 96.8639215784 95.9746610673C96.8639215784 95.9746610673 96.8639215784 95.9746610673 96.8639215784 95.9746610673C96.8639215784 95.9746610673 62.5317251034 116.036409899 62.5317251034 116.036409899C62.5317251034 116.036409899 96.3408042581 135.9856574 96.3408042581 135.9856574"/>
</svg>