
<svg xmlns="http://www.w3.org/2000/svg"  style="display: none;"><symbol id="arrow-top" viewBox="0 0 192 192"><path d="M151.967 95.827l-44.642-44.641.001-.001-11.314-11.314-56.045 56.042 11.314 11.314 36.817-36.815V172h16V70.787l36.455 36.454 11.414-11.414zM40.033 20h112v16h-112z" class="arrow-top-p1"/></symbol><symbol id="close" viewBox="0 0 192 192"><path d="M165 40.899L151.101 27 96 82.101 40.899 27 27 40.899 82.101 96 27 151.101 40.899 165 96 109.899 151.101 165 165 151.101 109.899 96z" class="close-p1"/></symbol><symbol id="copy" viewBox="0 0 192 192"><path d="M118.8 90.4h39.6l-39.6-39.6v39.6M68.4 40H126l43.2 43.2v86.4a14.4 14.4 0 0 1-14.4 14.4H68.4A14.396 14.396 0 0 1 54 169.6V54.4A14.4 14.4 0 0 1 68.4 40" class="copy-p1"/><path d="M24 136V22.4A14.442 14.442 0 0 1 38.4 8H126v14.4H38.4V136z" class="copy-p2"/></symbol><symbol id="delete" viewBox="0 0 192 192"><path d="M40 163.333A18.721 18.721 0 0 0 58.667 182h74.666A18.721 18.721 0 0 0 152 163.333V50H40zM62.96 95.88l13.16-13.16L96 102.507l19.787-19.787 13.16 13.16-19.787 19.787 19.787 19.786-13.16 13.16L96 128.827l-19.787 19.786-13.16-13.16 19.787-19.786zm65.707-74.547L119.333 10H72.667l-9.334 11.333H28V38h136V21.333z" class="delete-p1"/></symbol><symbol id="download" viewBox="0 0 192 192"><path d="M167.912 72H128l.008-64H63.949L64 72H23.912L96 148l71.912-76zM24 164h144v20H24z" class="download-p1"/></symbol><symbol id="edit" viewBox="0 0 192 192"><path d="M23.99 138.01v30h30l88.48-88.48-30-30zm141.68-81.68a7.967 7.967 0 0 0 0-11.28l-18.72-18.72a7.967 7.967 0 0 0-11.28 0l-14.64 14.64 30 30z" class="edit-p1"/></symbol><symbol id="filter" viewBox="0 0 192 192"><path d="M79 144h33v-16H79zm-32-40h97V88H47zM24 48v16h144V48z" class="filter-p1"/></symbol><symbol id="menu" viewBox="0 0 192 192"><path d="M24 144h144v-16H24zm0-40h144V88H24zm0-56v16h144V48z" class="menu-p1"/></symbol><symbol id="open-in-new" viewBox="0 0 192 192"><path d="M152 152H40V40h56V24H40a15.996 15.996 0 0 0-16 16v112a15.996 15.996 0 0 0 16 16h112a16.047 16.047 0 0 0 16-16V96h-16zM112 24v16h28.72l-78.64 78.64 11.28 11.28L152 51.28V80h16V24z" class="open-in-new-p1"/></symbol><symbol id="print" viewBox="0 0 192 192"><path d="M157.6 60.8H34.4A26.36 26.36 0 0 0 8 87.2V140h35.2v35.2h105.6V140H184V87.2a26.36 26.36 0 0 0-26.4-26.4zm-26.4 96.8H60.8v-44h70.4zM157.6 96a8.8 8.8 0 1 1 8.8-8.8 8.83 8.83 0 0 1-8.8 8.8zM43.2 16.8h105.6V52H43.2z" class="print-p1"/></symbol><symbol id="search" viewBox="0 0 192 192"><path d="M126.04 114.04h-6.32l-2.24-2.16a52.079 52.079 0 1 0-5.6 5.6l2.16 2.24v6.32L160 171.92 171.92 160zm-48 0a36 36 0 1 1 36-36 35.952 35.952 0 0 1-36 36z" class="search-p1"/></symbol><symbol id="share" viewBox="0 0 192 192"><path d="M141.778 127.434a22.218 22.218 0 0 0-14.954 5.875l-54.4-31.663a24.976 24.976 0 0 0 .687-5.34 24.976 24.976 0 0 0-.687-5.341l53.79-31.358a22.838 22.838 0 1 0-7.325-16.71 24.976 24.976 0 0 0 .687 5.342l-53.79 31.357a22.889 22.889 0 1 0 0 33.418l54.324 31.74a21.524 21.524 0 0 0-.61 4.959 22.279 22.279 0 1 0 22.278-22.279z" class="share-p1"/></symbol><symbol id="shoppingCart-add" viewBox="0 0 192 192"><path d="M60 120.098V120l8.286-16h68.027c6.57 0 12.557-2.632 15.535-8.076l31.362-56.991L170.26 31l-32 56H72L40.016 8H8v16h19.728l28.298 68.01-10.82 22.019a17.048 17.048 0 0 0-2.176 9.211c.415 9.47 8.544 16.76 18.012 16.76l102.958.018V124H63.99a3.946 3.946 0 0 1-3.99-3.902z" class="shoppingCart-add-p1"/><circle cx="61.9998" cy="166" r="18"/><circle cx="145.9998" cy="166" r="18"/><path d="M99 72h16V48h24V32h-24V8H99v24H75v16h24v24z" class="shoppingCart-add-p2"/></symbol><symbol id="sortingArrows" viewBox="0 0 192 192"><path d="M144.905 160.134V62.797l28.279 28.279 11.383-11.384-47.669-47.668L89.2 79.721l11.384 11.384 28.308-28.308v97.337h16.013zM63.137 32.024v97.337l28.279-28.279 11.384 11.384-47.669 47.668-47.698-47.697 11.383-11.383 28.308 28.307V32.024h16.013z" class="sortingArrows-p1"/></symbol><symbol id="zoom-in" viewBox="0 0 192 192"><path d="M126.04 114.04h-6.32l-2.24-2.16a52.079 52.079 0 1 0-5.6 5.6l2.16 2.24v6.32L160 171.92 171.92 160zm-48 0a36 36 0 1 1 36-36 35.952 35.952 0 0 1-36 36z" class="zoom-in-p1"/><path d="M82.04 58.04h-8v16h-16v8h16v16h8v-16h16v-8h-16v-16z" class="zoom-in-p2"/></symbol><symbol id="zoom-out" viewBox="0 0 192 192"><path d="M126.04 114.04h-6.32l-2.24-2.16a52.079 52.079 0 1 0-5.6 5.6l2.16 2.24v6.32L160 171.92 171.92 160zm-48 0a36 36 0 1 1 36-36 35.952 35.952 0 0 1-36 36z" class="zoom-out-p1"/><path d="M58.04 74.04h40v8h-40z" class="zoom-out-p2"/></symbol></svg>
