
<svg xmlns="http://www.w3.org/2000/svg"  style="display: none;">
<symbol id="arrow-down" viewBox="0 0 192 192"><path d="M96 160l64-64-11.36-11.36L104 129.36V32H88v97.36L43.28 84.72 32 96z" class="arrow-down-p1"/></symbol>
<symbol id="arrow-left" viewBox="0 0 192 192"><path d="M32 96l64 64 11.36-11.36L62.64 104H160V88H62.64l44.64-44.72L96 32z" class="arrow-left-p1"/></symbol>
<symbol id="arrow-right" viewBox="0 0 192 192"><path d="M160 96L96 32 84.64 43.36 129.36 88H32v16h97.36l-44.64 44.72L96 160l64-64z" class="arrow-right-p1"/></symbol>
<symbol id="arrow-up" viewBox="0 0 192 192"><path d="M32 96l11.28 11.28L88 62.64V160h16V62.64l44.64 44.72L160 96 96 32z" class="arrow-up-p1"/></symbol>
<symbol id="arrowCircle-left" viewBox="0 0 192 192"><path d="M96.5 8c-48.6 0-89 39.4-89 88s40.4 88 89 88a88 88 0 0 0 0-176zm55 96H70.13l32.46 32.45-11.42 11.42-40.64-40.64-11.31-11.32 52.04-52.04 11.31 11.31L69.76 88h81.74z" class="arrowCircle-left-p1"/></symbol>
<symbol id="arrowCircle-right" viewBox="0 0 192 192"><path d="M95.5 8a88 88 0 0 0 0 176c48.6 0 89-39.4 89-88s-40.4-88-89-88zm45.97 99.23l-40.64 40.64-11.42-11.42L121.87 104H40.5V88h81.74L89.43 55.18l11.31-11.31 52.04 52.04z" class="arrowCircle-right-p1"/></symbol>
<symbol id="blockDiagram" viewBox="0 0 192 192"><path d="M182 128V64l-33.373 24.017h-22.625V51.999H86V32H10v56h76V67.999h24.002v55.976H76.793L53.875 104H10v56h43.733l23.076-20.025h49.193v-35.958h21.968L182 128z" class="blockDiagram-p1"/></symbol>
<symbol id="calculator" viewBox="0 0 192 192"><path d="M0 0h192v192H0z" fill="none" class="calculator-p1"/><path d="M150 8H42a12.035 12.035 0 0 0-12 12v152a12.035 12.035 0 0 0 12 12h108a12.035 12.035 0 0 0 12-12V20a12.035 12.035 0 0 0-12-12zM70 166H48v-16h22zm0-31H48v-16h22zm0-31H48V88h22zm37 62H85v-16h22zm0-31H85v-16h22zm0-31H85V88h22zm37 62h-22v-16h22zm0-31h-22v-16h22zm0-31h-22V88h22zm0-40H48V28h96z" fill-rule="evenodd" class="calculator-p2"/></symbol>
<symbol id="calendar" viewBox="0 0 192 192"><path d="M152 32h-8V16h-16v16H64V16H48v16h-8a15.927 15.927 0 0 0-15.92 16L24 160a16 16 0 0 0 16 16h112a16.047 16.047 0 0 0 16-16V48a16.047 16.047 0 0 0-16-16zm0 128H40V72h112zM56 88h40v40H56z" class="calendar-p1"/></symbol>
<symbol id="chatBubble-double" viewBox="0 0 192 192"><path d="M0 2h162l-4 160H0z" fill="none" class="chatBubble-double-p1"/><path d="M168 46h-4v71.985A11.577 11.577 0 0 1 152.878 130q-.444.017-.889 0H45v4a12.035 12.035 0 0 0 12 12h91l32 32V58a12.035 12.035 0 0 0-12-12z" class="chatBubble-double-p2"/><path d="M138 14H24c-6.6 0-12 5.4-12 14v120l32-32h94c6.619-.019 11.981.619 12-6V26a12.035 12.035 0 0 0-12-12z" class="chatBubble-double-p3"/></symbol>
<symbol id="chatBubble-person" viewBox="0 0 192 192"><path d="M172 14H20c-6.6 0-12 5.4-12 12v152l32-32h132c6.6 0 12-5.4 12-12V26c0-6.6-5.4-12-12-12zM96 29.9c14.4 0 26 11.6 26 26s-11.6 26-26 26-26-11.6-26-26 11.6-26 26-26zm48 96.1H48v-8c0-16 32-24.1 48-24.1s48 8.1 48 24.1v8z" class="chatBubble-person-p1"/></symbol>
<symbol id="chatBubble-single" viewBox="0 0 192 192"><path d="M160 20H32a12.035 12.035 0 0 0-12 12v140l32-32h108a12.035 12.035 0 0 0 12-12V32a12.035 12.035 0 0 0-12-12z" class="chatBubble-single-p1"/></symbol>
<symbol id="checkmark-circle" viewBox="0 0 192 192"><path d="M96 8a88 88 0 1 0 88 88A88.032 88.032 0 0 0 96 8zM84.932 136.072L78.4 142.6l-.009-.008-.008.008-3.483-3.481-38.6-38.4L50.424 86.6l27.951 27.8 60.467-60.29 14.122 14.122z" class="checkmark-circle-p1"/></symbol>
<symbol id="checkmark" viewBox="0 0 192 192"><path d="M154.049 67.093l-75.956 75.956-.093-.093-.093.093-41.956-41.956 14.142-14.142L78 114.858l61.907-61.907 14.142 14.142z" class="checkmark-p1"/></symbol>
<symbol id="chevron-down" viewBox="0 0 192 192"><path d="M152.049 75.093l-55.956 55.956-.093-.093-.093.093-55.956-55.956 14.142-14.142L96 102.858l41.907-41.907 14.142 14.142z" class="chevron-down-p1"/></symbol>
<symbol id="chevron-left" viewBox="0 0 192 192"><path d="M60.951 95.907l55.956-55.956 14.142 14.142L89.142 96l41.907 41.907-14.142 14.142-55.956-55.956.093-.093-.093-.093z" class="chevron-left-p1"/></symbol>
<symbol id="chevron-right" viewBox="0 0 192 192"><path d="M131.049 95.907L75.093 39.951 60.951 54.093 102.858 96l-41.907 41.907 14.142 14.142 55.956-55.956-.093-.093.093-.093z" class="chevron-right-p1"/></symbol>
<symbol id="chevron-up" viewBox="0 0 192 192"><path d="M152.049 116.907L96.093 60.951l-.093.093-.093-.093-55.956 55.956 14.142 14.142L96 89.142l41.907 41.907 14.142-14.142z" class="chevron-up-p1"/></symbol>
<symbol id="chip" viewBox="0 0 192 192"><path d="M64 64h64v64H64z" class="chip-p1"/><path d="M184 68V52h-24v-8a12 12 0 0 0-12-12h-8V8h-16v24h-20V8H88v24H68V8H52v24h-8a12 12 0 0 0-12 12v8H8v16h24v20H8v16h24v20H8v16h24v8a12 12 0 0 0 12 12h8v24h16v-24h20v24h16v-24h20v24h16v-24h8a12 12 0 0 0 12-12v-8h24v-16h-24v-20h24V88h-24V68zm-40 76H48V48h96z" class="chip-p2"/></symbol>
<symbol id="clipboard" viewBox="0 0 192 192"><path d="M160 28.016h-38.8a26.3 26.3 0 0 0-50.965 0H32a12 12 0 0 0-12 12v131.748a12 12 0 0 0 12 12h128a12 12 0 0 0 12-12V40.016a12 12 0 0 0-12-12zm-64.28-1.888a8.5 8.5 0 1 1-8.5 8.5 8.5 8.5 0 0 1 8.5-8.5zM112 152H48v-16h64zm32-32H48v-16h96zm0-32H48V72h96z" class="clipboard-p1"/></symbol>
<symbol id="close-circle" viewBox="0 0 192 192"><path d="M96 8a88 88 0 1 0 88 88A88.032 88.032 0 0 0 96 8zm39.032 139.477L96 108.445l-39.032 39.032-12.445-12.445L83.555 96 44.523 56.968l12.445-12.445L96 83.555l39.032-39.032 12.445 12.445L108.445 96l39.032 39.032z" class="close-circle-p1"/></symbol>
<symbol id="crossReference" viewBox="0 0 192 192"><path d="M156.57 70.5a12 12 0 0 0 3.43-8.4l-.019-26.1-27.981.063V57L96 93 60 57V12H32v50.3a12 12 0 0 0 3.445 8.414L80.98 117.02 81 137H60l36 43 36-43h-21l.022-19.978z" class="crossReference-p1"/></symbol>
<symbol id="dash-circle" viewBox="0 0 192 192"><path d="M96 8a88 88 0 1 0 88 88A88.032 88.032 0 0 0 96 8zm54 96.8H42V87.2h108z" class="dash-circle-p1"/></symbol>
<symbol id="dash" viewBox="0 0 192 192"><path d="M32.002 86h127.996v20H32.002z" class="dash-p1"/></symbol>
<symbol id="desktop" viewBox="0 0 192 192"><path d="M168 16H24A16.047 16.047 0 0 0 8 32v96a16.047 16.047 0 0 0 16 16h56v16H64v16h64v-16h-16v-16h56a16.047 16.047 0 0 0 16-16V32a16.047 16.047 0 0 0-16-16zm0 112H24V32h144z" class="desktop-p1"/></symbol>
<symbol id="document-generic" viewBox="0 0 192 192"><path d="M112 8H38a12.035 12.035 0 0 0-12 12v152a12.035 12.035 0 0 0 12 12h116a12.035 12.035 0 0 0 12-12V62zm20 140H60v-16h72zm0-36H60V96h72zm-20-50V25.4L148.521 62z" class="document-generic-p1"/></symbol>
<symbol id="document-pdfAcrobat" viewBox="0 0 192 192"><path d="M112.02 8h-74A12.059 12.059 0 0 0 26 20v152a12.059 12.059 0 0 0 12.02 12h116A12.018 12.018 0 0 0 166 172V62zM112 25.4L148.54 62H112zm40.92 104.48a8.546 8.546 0 0 1-2.46 5.8c-1.5 1.67-4.13 2.63-8 2.63a65.128 65.128 0 0 1-26.38-6.5c-15.12 1.67-26.37 3.69-35.42 6.59l-1.59.62C68.17 157.65 60.09 166 52.97 166l-3.87-.96-4.22-2.73-.27-.44a8.015 8.015 0 0 1-.44-4.74c.97-4.66 5.98-12.05 16.53-18.64l7.83-4.31 8.44-15.82a148.747 148.747 0 0 0 9.49-25.76v-.09c-3.25-10.64-5.19-17.06-1.93-28.75.79-3.34 3.69-6.77 6.94-6.77h2.11a7.514 7.514 0 0 1 5.37 2.11c5.8 5.8 3.07 19.96.17 31.65l-.35 1.23c3.52 9.94 8.53 17.94 14.07 22.51l7.64 5.1 11.34-.62c10.91 0 17.5 1.94 20.05 6.07a7.1 7.1 0 0 1 1.05 4.84zm-21.99-3.25a1.866 1.866 0 0 0-1.82.79c5.78 2.53 11.39 4.03 15.03 4.03l1.5-.16h.32c.4-.16.63-.23.72-1.02l-.72-.87c-.79-.8-3.95-2.77-15.03-2.77zm-37.25-22.94a116.346 116.346 0 0 1-7.99 18.99l-3.95 8.23.87-.31v-.01a149.411 149.411 0 0 1 26.42-7.35l-3.24-2.53c-4.75-4.04-8.86-9.89-12.11-17.02zm-.45-23.44l1.27-6.49.24-1.26c.79-4.27.64-6.8-.71-8.7l-1.19-.4-.55.95c-1.35 3.32-1.27 9.1.54 16.22zm-41.1 78.72c3.56-1.18 8.23-6.41 13.37-15.82l-3.8 2.45c-5.61 5.14-9.17 10.36-9.57 13.37z" class="document-pdfAcrobat-p1"/></symbol>
<symbol id="document-web" viewBox="0 0 192 192"><path d="M111.934 8h-74A11.979 11.979 0 0 0 26 20v152a11.979 11.979 0 0 0 11.934 12h116A12.092 12.092 0 0 0 166 172V62zM77.975 154.5l-31.4-31.41-.179-.179L77.8 91.5l11.3 11.31L69 122.9l20.3 20.278zm67.591-31.41l-31.4 31.41-11.322-11.325 20.3-20.278-20.1-20.086L114.342 91.5l31.4 31.411-.179.179zM112 62V25.4L148.455 62z" class="document-web-p1"/></symbol>
<symbol id="ellipsis" viewBox="0 0 192 192"><path d="M48 80a16 16 0 1 0 16 16 16.047 16.047 0 0 0-16-16zm96 0a16 16 0 1 0 16 16 16.047 16.047 0 0 0-16-16zm-48 0a16 16 0 1 0 16 16 16.047 16.047 0 0 0-16-16z" class="ellipsis-p1"/></symbol>
<symbol id="evaluationModule" viewBox="0 0 192 192"><path d="M157.967 68a17.917 17.917 0 0 1-16.148 11.076 17.314 17.314 0 0 1-17.243-17.326 17.136 17.136 0 0 1 17.243-17.118A16.752 16.752 0 0 1 157.967 56H184V19.667A11.36 11.36 0 0 0 172.469 8H56v36h52v57.853A16.848 16.848 0 0 1 119.477 118a17.143 17.143 0 0 1-17.125 17.242A17.393 17.393 0 0 1 84.933 118 17.908 17.908 0 0 1 96 101.853V56H56v74.853a17.148 17.148 0 0 1-5.3 33.39A17.493 17.493 0 0 1 33.164 147 17.7 17.7 0 0 1 44 130.853V8H20.469C13.869 8 8 13.067 8 19.667v152A12.734 12.734 0 0 0 20.469 184h108L184 127.667V68z" class="evaluationModule-p1"/></symbol>
<symbol id="eye" viewBox="0 0 192 192"><path d="M96 136c-22.1 0-40-17.9-40-40s17.9-40 40-40 40 17.9 40 40-17.9 40-40 40m0-94C56 42 21.8 64.4 8 96c13.8 31.6 48 54 88 54s74.2-22.4 88-54c-13.8-31.6-48-54-88-54z" class="eye-p1"/><path d="M96 76.8c-10.6 0-19.2 8.6-19.2 19.2s8.6 19.2 19.2 19.2 19.2-8.6 19.2-19.2-8.6-19.2-19.2-19.2" class="eye-p2"/></symbol>
<symbol id="globe" viewBox="0 0 192 192"><path d="M96 8a88 88 0 1 0 88 88A88 88 0 0 0 96 8zm62.353 51.242H132.74a116.6 116.6 0 0 0-6.685-23.161c-1.043-2.609-2.156-5.234-3.329-7.5a71.35 71.35 0 0 1 35.627 30.661zM96 23.242c6.745 0 15.592 13 20.44 36H75.56c4.848-23 13.695-36 20.44-36zm24 72a185.63 185.63 0 0 1-1.039 20H73.039a193 193 0 0 1 0-40h45.922a185.63 185.63 0 0 1 1.039 20zM69.273 28.767c-1.172 2.27-2.285 4.516-3.329 7.125a118.618 118.618 0 0 0-6.685 23.35H33.648a70.984 70.984 0 0 1 35.625-30.475zM26.828 75.242H56.97a206.573 206.573 0 0 0 0 40H26.828a72.138 72.138 0 0 1 0-40zm6.82 56H59.26a124.782 124.782 0 0 0 6.685 23.918c1.043 2.609 2.156 4.855 3.329 7.125a72.076 72.076 0 0 1-35.626-31.043zm62.352 36c-6.745 0-15.592-13-20.44-36h40.88c-4.848 23-13.695 36-20.44 36zm26.727-4.767c1.172-2.271 2.285-4.9 3.329-7.5a122.708 122.708 0 0 0 6.685-23.729h25.612a72.451 72.451 0 0 1-35.626 31.23zm42.446-47.233H135.03a197.424 197.424 0 0 0 .97-20 197.424 197.424 0 0 0-.97-20h30.143a72.144 72.144 0 0 1 0 40z" class="globe-p1"/></symbol>
<symbol id="group" viewBox="0 0 192 192"><path d="M128 88a24 24 0 1 0-24-24 23.9 23.9 0 0 0 24 24zm-64 0a24 24 0 1 0-24-24 23.9 23.9 0 0 0 24 24zm0 16c-18.64 0-56 9.36-56 28v20h112v-20c0-18.64-37.36-28-56-28zm64 0c-2.32 0-4.96.16-7.76.4 9.28 6.72 15.76 15.76 15.76 27.6v20h48v-20c0-18.64-37.36-28-56-28z" class="group-p1"/></symbol>
<symbol id="historyClock" viewBox="0 0 192 192"><path d="M108.571 21c-41.314 0-76 34.432-76.565 75H8l32 33 32-33H48.009c.579-31.567 28.466-58.333 60.562-58.333a58.333 58.333 0 1 1-41.4 99.5L55.269 149a75.262 75.262 0 0 0 53.3 22C150.225 171 184 137.417 184 96s-33.775-75-75.429-75z" class="historyClock-p1"/><path d="M116 93V57h-16v44l28 28 12.5-11.625L116 93z" class="historyClock-p2"/></symbol>
<symbol id="info-circle" viewBox="0 0 192 192"><path d="M96 8a88 88 0 1 0 88 88A88.033 88.033 0 0 0 96 8zm8 132H88V84h16zm0-72H88V52h16z" class="info-circle-p1"/></symbol>
<symbol id="list" viewBox="0 0 192 192"><path d="M32 56h16v16H32zM64 56h96v16H64zM32 88h16v16H32zM64 88h96v16H64zM32 120h16v16H32zM64 120h96v16H64z" class="list-p1"/></symbol>
<symbol id="lock-open" viewBox="0 0 192 192"><path d="M146.29 66.67h-8.39V49.9a41.9 41.9 0 0 0-83.8 0H70a26 26 0 0 1 52 0v16.77H45.71A16.81 16.81 0 0 0 29 83.43v83.81A16.81 16.81 0 0 0 45.71 184h100.58a16.81 16.81 0 0 0 16.76-16.76V83.43a16.81 16.81 0 0 0-16.76-16.76zm0 100.57H45.71V83.43h100.58zM95.76 142A16.76 16.76 0 1 0 79 125.24 16.81 16.81 0 0 0 95.76 142z" class="lock-open-p1"/></symbol>
<symbol id="lock" viewBox="0 0 192 192"><path d="M146.286 66.667h-8.381V49.905a41.905 41.905 0 0 0-83.81 0v16.762h-8.381a16.811 16.811 0 0 0-16.762 16.762v83.81A16.811 16.811 0 0 0 45.714 184h100.572a16.811 16.811 0 0 0 16.762-16.762v-83.81a16.811 16.811 0 0 0-16.762-16.761zM96 142.095a16.762 16.762 0 1 1 16.762-16.762A16.811 16.811 0 0 1 96 142.095zm25.981-75.428H70.019V49.905a25.981 25.981 0 0 1 51.962 0z" class="lock-p1"/></symbol>
<symbol id="mail" viewBox="0 0 192 192"><path d="M0 0h192v192H0z" fill="none" class="mail-p1"/><path d="M160 32H32a15.979 15.979 0 0 0-15.92 16L16 144a16.047 16.047 0 0 0 16 16h128a16.047 16.047 0 0 0 16-16V48a16.047 16.047 0 0 0-16-16zm0 32l-64 40-64-40V48l64 40 64-40z" class="mail-p2"/></symbol>
<symbol id="mobile" viewBox="0 0 192 192"><path d="M136 8.08L56 8a16.047 16.047 0 0 0-16 16v144a16.047 16.047 0 0 0 16 16h80a16.047 16.047 0 0 0 16-16V24a15.979 15.979 0 0 0-16-15.92zM136 152H56V40h80z" class="mobile-p1"/></symbol>
<symbol id="myTI" viewBox="0 0 192 192"><path d="M96 52.552a26.924 26.924 0 1 0 26.924 26.924A26.888 26.888 0 0 0 96 52.552z" class="myTI-p1"/><path d="M96 8a88 88 0 1 0 88 88A88 88 0 0 0 96 8zm51.96 137.763c-.8-1.7-1.946-3.877-3.6-6.688-8.86-15.075-33.313-21.62-48.36-21.62s-38 6.3-48.361 21.621a57.4 57.4 0 0 0-3.84 6.435 72 72 0 1 1 104.162.253z" class="myTI-p2"/></symbol>
<symbol id="office" viewBox="0 0 192 192"><path d="M96 56V24H16v144h160V56zm-48 96H32v-16h16zm0-32H32v-16h16zm0-32H32V72h16zm0-32H32V40h16zm32 96H64v-16h16zm0-32H64v-16h16zm0-32H64V72h16zm0-32H64V40h16zm80 96H96v-16h16v-16H96v-16h16V88H96V72h64zm-16-64h-16v16h16zm0 32h-16v16h16z" class="office-p1"/></symbol>
<symbol id="onlineDataSheet" viewBox="0 0 192 192"><path d="M48 172h96l-48-48zM168 20H24A16.047 16.047 0 0 0 8 36v96a16.047 16.047 0 0 0 16 16h32v-16H24V36h144v96h-32v16h32a16.047 16.047 0 0 0 16-16V36a16.047 16.047 0 0 0-16-16z" class="onlineDataSheet-p1"/><path d="M48 60h96v16H48zM48 92h96v16H48z" class="onlineDataSheet-p2"/></symbol>
<symbol id="person" viewBox="0 0 192 192"><path d="M96 96a32 32 0 1 0-32-32 31.991 31.991 0 0 0 32 32zm0 16c-21.36 0-64 10.72-64 32v16h128v-16c0-21.28-42.64-32-64-32z" class="person-p1"/></symbol>
<symbol id="phone" viewBox="0 0 192 192"><path d="M0 0h192v192H0z" fill="none" class="phone-p1"/><path d="M52.96 86.32a121.189 121.189 0 0 0 52.72 52.72l17.6-17.6a7.954 7.954 0 0 1 8.16-1.92 91.256 91.256 0 0 0 28.56 4.56 8.024 8.024 0 0 1 8 8V160a8.024 8.024 0 0 1-8 8A135.988 135.988 0 0 1 24 32a8.024 8.024 0 0 1 8-8h28a8.024 8.024 0 0 1 8 8 90.883 90.883 0 0 0 4.56 28.56 8.028 8.028 0 0 1-2 8.16z" class="phone-p2"/></symbol>
<symbol id="plus-circle" viewBox="0 0 192 192"><path d="M96 8a88 88 0 1 0 88 88A88.032 88.032 0 0 0 96 8zm54 96.8h-45.2V150H87.2v-45.2H42V87.2h45.2V42h17.6v45.2H150z" class="plus-circle-p1"/></symbol>
<symbol id="plus" viewBox="0 0 192 192"><path d="M159.998 106.002v-20L106 86l.002-53.998h-20L86 86l-53.998-.002v20L86 106l-.002 53.998h20L106 106l53.998.002z" class="plus-p1"/></symbol>
<symbol id="question-circle" viewBox="0 0 192 192"><path d="M96 8a88 88 0 1 0 88 88A88.032 88.032 0 0 0 96 8zm8.8 149.6H87.2V140h17.6zm18.216-68.2l-7.92 8.096C108.76 103.92 104.8 109.2 104.8 122.4H87.2V118a35.42 35.42 0 0 1 10.296-24.904l10.912-11.088A17.207 17.207 0 0 0 113.6 69.6a17.6 17.6 0 0 0-35.2 0H60.8a35.2 35.2 0 1 1 70.4 0 28.002 28.002 0 0 1-8.184 19.8z" class="question-circle-p1"/></symbol>
<symbol id="referenceDesign" viewBox="0 0 192 192"><path d="M168 114.052V44h-32l-22-27.2-24 30.3-24-30.2L44 44H12v100h56v32l56-40-56-40.2V128H28V60h24l14-17.1 24 30.4L114.1 43 128 60h24v54.3a21.457 21.457 0 1 0 16-.244z" class="referenceDesign-p1"/></symbol>
<symbol id="rss" viewBox="0 0 192 192"><path d="M49.933 124.134a17.933 17.933 0 0 1 0 35.866A18.192 18.192 0 0 1 32 142.067a17.933 17.933 0 0 1 17.933-17.933M32 32a128 128 0 0 1 128 128h-23.28A104.72 104.72 0 0 0 32 55.28V32m0 46.56A81.44 81.44 0 0 1 113.44 160H90.16A58.16 58.16 0 0 0 32 101.84z" class="rss-p1"/></symbol>
<symbol id="shoppingCart" viewBox="0 0 192 192"><path d="M8 8v16h19.725l28.294 68L45.2 114.015a17.045 17.045 0 0 0-2.175 9.21c.415 9.468 8.543 16.757 18.009 16.757L164 140v-16H63.74a3.949 3.949 0 0 1-4-4l8.286-16h68.027c6.57 0 12.557-2.632 15.535-8.076l31.362-56.991a8.6 8.6 0 0 0 1.05-4.215c0-4.83-3.114-6.718-7.932-6.718H48.016l-8-20z" class="shoppingCart-p1"/><circle cx="62" cy="166" r="18"/><circle cx="146" cy="166" r="18"/></symbol>
<symbol id="star" viewBox="0 0 192 192"><path d="M96.079 147.205L150.414 180 136 118.192l48-41.587-63.215-5.451L96.079 12.95l-24.706 58.2-63.215 5.455 47.917 41.587L41.744 180z" class="star-p1"/></symbol>
<symbol id="tools" viewBox="0 0 192 192"><path d="M123.039 96.32a15.24 15.24 0 0 0 1.688-11.905l27.811-28.685 14.192-2.839L184 17.274 174.725 8l-35.619 17.27-2.85 14.256L108.452 68.2a15.248 15.248 0 0 0-11.032 1.264A45.947 45.947 0 0 0 35.553 12.32l-5.178 2.267L62.08 46.274 45.886 62.457l-31.7-31.684-2.268 5.17a45.946 45.946 0 0 0 55.3 62.444l-54.742 54.1a15.318 15.318 0 0 0 0 21.64l5.4 5.4a15.335 15.335 0 0 0 21.624.016l56.611-55.949L152 179.515a15.359 15.359 0 0 0 21.693 0l5.413-5.409a15.365 15.365 0 0 0 0-21.685z" class="tools-p1"/></symbol>
<symbol id="video" viewBox="0 0 192 192"><path d="M0 0h192v192H0z" fill="none" class="video-p1"/><path d="M160 32H32a16.047 16.047 0 0 0-16 16v96a16.047 16.047 0 0 0 16 16h128a16.047 16.047 0 0 0 16-16V48a16.047 16.047 0 0 0-16-16zM76 132V60l52 36z" class="video-p2"/></symbol>
<symbol id="videos" viewBox="0 0 192 192"><path d="M32 48H16v112c0 8.8 7.2 16 16 16h112v-16H32V48zm128-32H64c-8.8 0-16 7.2-16 16v96c0 8.8 7.2 16 16 16h96c8.8 0 16-7.2 16-16V32c0-8.8-7.2-16-16-16zM92 116V44l52 36-52 36z" class="videos-p1"/></symbol>
<symbol id="warning" viewBox="0 0 192 192"><path d="M8 172h176L96 20zm96-24H88v-16h16zm0-32H88V84h16z" class="warning-p1"/></symbol>
<symbol id="wiki" viewBox="0 0 192 192"><path d="M8 36v6.792S17 44 24.122 58.73C29.131 69.092 66.273 156 66.273 156h7.543L99.7 104.874 121.143 156h7.543S170.1 56.842 174.09 49.3s9.91-6.8 9.91-6.8V36h-34.757v6.053S164 42 161.519 49.891l-32.538 77.132-17.6-40.637S127.16 51.442 130.9 46.933c4.1-4.933 12.867-4.881 12.867-4.881V36h-37.71v5.757s13.9-.444 11.684 6.8l-12.128 27.181-12.719-28.213S90 42 100.881 41.9V36H58.286v6.053s12.719-.3 15.233 4.289l20.706 47-19.079 36.787s-32.981-76.54-33.425-79.794S44 43 52.955 42.045l.032-6.032z" class="wiki-p1"/></symbol>
</svg>
