<!--
Copyright (c) 2015-2020, Texas Instruments Incorporated
All rights reserved.

Redistribution and use in source and binary forms, with or without
modification, are permitted provided that the following conditions
are met:

*   Redistributions of source code must retain the above copyright
notice, this list of conditions and the following disclaimer.
notice, this list of conditions and the following disclaimer in the
documentation and/or other materials provided with the distribution.
*   Neither the name of Texas Instruments Incorporated nor the names of
its contributors may be used to endorse or promote products derived
from this software without specific prior written permission.

THIS SOFTWARE IS PROVIDED BY THE COPYRIGHT HOLDERS AND CONTRIBUTORS "AS IS"
AND ANY EXPRESS OR IMPLIED WARRANTIES, INCLUDING, BUT NOT LIMITED TO,
THE IMPLIED WARRANTIES OF MERCHANTABILITY AND FITNESS FOR A PARTICULAR
PURPOSE ARE DISCLAIMED. IN NO EVENT SHALL THE COPYRIGHT OWNER OR
CONTRIBUTORS BE LIABLE FOR ANY DIRECT, INDIRECT, INCIDENTAL, SPECIAL,
EXEMPLARY, OR CONSEQUENTIAL DAMAGES (INCLUDING, BUT NOT LIMITED TO,
PROCUREMENT OF SUBSTITUTE GOODS OR SERVICES; LOSS OF USE, DATA, OR PROFITS;
OR BUSINESS INTERRUPTION) HOWEVER CAUSED AND ON ANY THEORY OF LIABILITY,
WHETHER IN CONTRACT, STRICT LIABILITY, OR TORT (INCLUDING NEGLIGENCE OR
OTHERWISE) ARISING IN ANY WAY OUT OF THE USE OF THIS SOFTWARE,
EVEN IF ADVISED OF THE POSSIBILITY OF SUCH DAMAGE.
-->
<svg xmlns="http://www.w3.org/2000/svg"  style="display: none;"><symbol viewBox="0 0 24 24" id="user"><path d="M12,19.2C9.5,19.2 7.29,17.92 6,16C6.03,14 10,12.9 12,12.9C14,12.9 17.97,14 18,16C16.71,17.92 14.5,19.2 12,19.2M12,5A3,3 0 0,1 15,8A3,3 0 0,1 12,11A3,3 0 0,1 9,8A3,3 0 0,1 12,5M12,2A10,10 0 0,0 2,12A10,10 0 0,0 12,22A10,10 0 0,0 22,12C22,6.47 17.5,2 12,2Z" class="user-p1"/></symbol>
<symbol viewBox="0 0 24 24" id="logout"><path d="M17,17.25V14H10V10H17V6.75L22.25,12L17,17.25M13,2A2,2 0 0,1 15,4V8H13V4H4V20H13V16H15V20A2,2 0 0,1 13,22H4A2,2 0 0,1 2,20V4A2,2 0 0,1 4,2H13Z" class="logout-p1"/></symbol>
<symbol viewBox="0 0 24 24" id="login"><path d="M10,17.25V14H3V10H10V6.75L15.25,12L10,17.25M8,2H17A2,2 0 0,1 19,4V20A2,2 0 0,1 17,22H8A2,2 0 0,1 6,20V16H8V20H17V4H8V8H6V4A2,2 0 0,1 8,2Z" class="login-p1"/></symbol>
</svg>